<mxfile host="app.diagrams.net" modified="2022-04-22T15:17:05.414Z" agent="5.0 (Windows NT 10.0; Win64; x64) AppleWebKit/537.36 (KHTML, like Gecko) Chrome/100.0.4896.127 Safari/537.36" etag="To5FdTnuwA0qqlsxOm3u" version="16.6.3" type="github">
  <diagram id="I8DebbqqYLaByu_6cObp" name="Page-1">
    <mxGraphModel dx="712" dy="499" grid="1" gridSize="10" guides="1" tooltips="1" connect="1" arrows="1" fold="1" page="1" pageScale="1" pageWidth="827" pageHeight="1169" math="0" shadow="0">
      <root>
        <mxCell id="0" />
        <mxCell id="1" parent="0" />
        <mxCell id="IXUASbFMRorGri0YMZiN-2" value="&lt;font style=&quot;font-size: 28px&quot;&gt;&lt;font color=&quot;#3333ff&quot;&gt;&amp;lt;h1&amp;gt;&lt;/font&gt; &lt;font color=&quot;#ff3333&quot;&gt;My Website&lt;/font&gt; &lt;font color=&quot;#ff66ff&quot;&gt;&amp;lt;/h1&amp;gt;&lt;/font&gt;&lt;/font&gt;" style="text;html=1;strokeColor=none;fillColor=none;align=center;verticalAlign=middle;whiteSpace=wrap;rounded=0;" vertex="1" parent="1">
          <mxGeometry x="210" y="90" width="340" height="110" as="geometry" />
        </mxCell>
        <mxCell id="IXUASbFMRorGri0YMZiN-3" value="Start tag" style="text;html=1;strokeColor=none;fillColor=none;align=center;verticalAlign=middle;whiteSpace=wrap;rounded=0;fontSize=20;" vertex="1" parent="1">
          <mxGeometry x="160" y="190" width="110" height="30" as="geometry" />
        </mxCell>
        <mxCell id="IXUASbFMRorGri0YMZiN-5" value="End tag" style="text;html=1;strokeColor=none;fillColor=none;align=center;verticalAlign=middle;whiteSpace=wrap;rounded=0;fontSize=20;" vertex="1" parent="1">
          <mxGeometry x="490" y="190" width="110" height="30" as="geometry" />
        </mxCell>
        <mxCell id="IXUASbFMRorGri0YMZiN-6" value="&lt;font color=&quot;#ff3333&quot;&gt;Content&lt;/font&gt;" style="text;html=1;strokeColor=none;fillColor=none;align=center;verticalAlign=middle;whiteSpace=wrap;rounded=0;fontSize=20;" vertex="1" parent="1">
          <mxGeometry x="325" y="50" width="110" height="30" as="geometry" />
        </mxCell>
        <mxCell id="IXUASbFMRorGri0YMZiN-7" value="" style="endArrow=classic;html=1;rounded=0;fontSize=20;exitX=0.5;exitY=0;exitDx=0;exitDy=0;" edge="1" parent="1" source="IXUASbFMRorGri0YMZiN-3">
          <mxGeometry width="50" height="50" relative="1" as="geometry">
            <mxPoint x="340" y="260" as="sourcePoint" />
            <mxPoint x="240" y="160" as="targetPoint" />
          </mxGeometry>
        </mxCell>
        <mxCell id="IXUASbFMRorGri0YMZiN-12" value="" style="endArrow=classic;html=1;rounded=0;fontSize=20;exitX=0.5;exitY=0;exitDx=0;exitDy=0;" edge="1" parent="1" source="IXUASbFMRorGri0YMZiN-5">
          <mxGeometry width="50" height="50" relative="1" as="geometry">
            <mxPoint x="550" y="210" as="sourcePoint" />
            <mxPoint x="520" y="160" as="targetPoint" />
          </mxGeometry>
        </mxCell>
        <mxCell id="IXUASbFMRorGri0YMZiN-14" value="" style="endArrow=classic;html=1;rounded=0;fontSize=20;exitX=0.5;exitY=1;exitDx=0;exitDy=0;" edge="1" parent="1" source="IXUASbFMRorGri0YMZiN-6">
          <mxGeometry width="50" height="50" relative="1" as="geometry">
            <mxPoint x="360" y="80" as="sourcePoint" />
            <mxPoint x="380" y="120" as="targetPoint" />
          </mxGeometry>
        </mxCell>
      </root>
    </mxGraphModel>
  </diagram>
</mxfile>
